<?xml version="1.0" standalone="yes"?>

<svg version="1.1" viewBox="0.0 0.0 1024.0 768.0" fill="none" stroke="none" stroke-linecap="square" stroke-miterlimit="10" xmlns="http://www.w3.org/2000/svg" xmlns:xlink="http://www.w3.org/1999/xlink"><clipPath id="p.0"><path d="m0 0l1024.0 0l0 768.0l-1024.0 0l0 -768.0z" clip-rule="nonzero"></path></clipPath><g clip-path="url(#p.0)"><path fill="#000000" fill-opacity="0.0" d="m0 0l1024.0 0l0 768.0l-1024.0 0z" fill-rule="evenodd"></path><path fill="#93c47d" d="m378.0 202.0l183.33258 0l36.66742 36.667404l0 307.33258l-220.0 0z" fill-rule="evenodd"></path><path stroke="#000000" stroke-width="1.0" stroke-linejoin="round" stroke-linecap="butt" d="m378.0 202.0l183.33258 0l36.66742 36.667404l0 307.33258l-220.0 0z" fill-rule="evenodd"></path><path fill="#fce5cd" d="m428.50394 159.99213l0 0c0 -42.521576 26.637299 -76.99213 59.496063 -76.99213l0 0c15.779327 0 30.912415 8.111649 42.07007 22.550468c11.157654 14.4388275 17.425964 34.02207 17.425964 54.441658l0 0c0 42.521576 -26.637268 76.99213 -59.496033 76.99213l0 0c-32.858765 0 -59.496063 -34.47055 -59.496063 -76.99213z" fill-rule="evenodd"></path><path stroke="#000000" stroke-width="1.0" stroke-linejoin="round" stroke-linecap="butt" d="m428.50394 159.99213l0 0c0 -42.521576 26.637299 -76.99213 59.496063 -76.99213l0 0c15.779327 0 30.912415 8.111649 42.07007 22.550468c11.157654 14.4388275 17.425964 34.02207 17.425964 54.441658l0 0c0 42.521576 -26.637268 76.99213 -59.496033 76.99213l0 0c-32.858765 0 -59.496063 -34.47055 -59.496063 -76.99213z" fill-rule="evenodd"></path><path fill="#000000" fill-opacity="0.0" d="m370.0 249.0l522.01575 -1.0078735" fill-rule="evenodd"></path><path stroke="#b7b7b7" stroke-width="12.0" stroke-linejoin="round" stroke-linecap="butt" d="m370.0 249.0l522.01575 -1.0078735" fill-rule="evenodd"></path><path fill="#ffffff" d="m496.33072 145.49606l15.007874 0l0 -4.496063l8.992096 8.992126l-8.992096 8.992126l0 -4.496063l-15.007874 0z" fill-rule="evenodd"></path><path stroke="#000000" stroke-width="1.0" stroke-linejoin="round" stroke-linecap="butt" d="m496.33072 145.49606l15.007874 0l0 -4.496063l8.992096 8.992126l-8.992096 8.992126l0 -4.496063l-15.007874 0z" fill-rule="evenodd"></path><path fill="#000000" fill-opacity="0.0" d="m578.6697 247.25264l0 0c4.162842 11.967392 0.65008545 26.329086 -8.632751 35.29451c-9.282898 8.965424 -22.123657 10.39801 -31.556824 3.520691c-9.433105 -6.87735 -13.210632 -20.42572 -9.283386 -33.295685z" fill-rule="evenodd"></path><path stroke="#000000" stroke-width="4.0" stroke-linejoin="round" stroke-linecap="butt" d="m578.6697 247.25264l0 0c4.162842 11.967392 0.65008545 26.329086 -8.632751 35.29451c-9.282898 8.965424 -22.123657 10.39801 -31.556824 3.520691c-9.433105 -6.87735 -13.210632 -20.42572 -9.283386 -33.295685z" fill-rule="evenodd"></path><path fill="#ffffff" d="m449.0 145.49606l15.007874 0l0 -4.496063l8.992126 8.992126l-8.992126 8.992126l0 -4.496063l-15.007874 0z" fill-rule="evenodd"></path><path stroke="#000000" stroke-width="1.0" stroke-linejoin="round" stroke-linecap="butt" d="m449.0 145.49606l15.007874 0l0 -4.496063l8.992126 8.992126l-8.992126 8.992126l0 -4.496063l-15.007874 0z" fill-rule="evenodd"></path><path fill="#000000" fill-opacity="0.0" d="m474.50394 186.98425l0 0c20.160553 0 36.503937 7.3890686 36.503937 16.503937l-36.503937 0z" fill-rule="evenodd"></path><path fill="#000000" fill-opacity="0.0" d="m474.50394 186.98425l0 0c20.160553 0 36.503937 7.3890686 36.503937 16.503937" fill-rule="evenodd"></path><path stroke="#000000" stroke-width="1.0" stroke-linejoin="round" stroke-linecap="butt" d="m474.50394 186.98425l0 0c20.160553 0 36.503937 7.3890686 36.503937 16.503937" fill-rule="evenodd"></path><path fill="#783f04" d="m370.00052 247.99213l0 86.01575l220.00003 -86.01575z" fill-rule="evenodd"></path><path stroke="#000000" stroke-width="1.0" stroke-linejoin="round" stroke-linecap="butt" d="m370.00052 247.99213l0 86.01575l220.00003 -86.01575z" fill-rule="evenodd"></path><path fill="#000000" fill-opacity="0.0" d="m370.0 257.0l522.01575 -1.0078735" fill-rule="evenodd"></path><path stroke="#d9d9d9" stroke-width="12.0" stroke-linejoin="round" stroke-linecap="butt" d="m370.0 257.0l522.01575 -1.0078735" fill-rule="evenodd"></path><path fill="#93c47d" d="m419.49606 97.99213l68.50394 -43.007874l68.50397 43.007874l-68.50397 43.007874z" fill-rule="evenodd"></path><path stroke="#000000" stroke-width="1.0" stroke-linejoin="round" stroke-linecap="butt" d="m419.49606 97.99213l68.50394 -43.007874l68.50397 43.007874l-68.50397 43.007874z" fill-rule="evenodd"></path><path fill="#000000" fill-opacity="0.0" d="m382.0 449.0l66.99213 98.99213" fill-rule="evenodd"></path><path stroke="#000000" stroke-width="1.0" stroke-linejoin="round" stroke-linecap="butt" d="m382.0 449.0l66.99213 98.99213" fill-rule="evenodd"></path><path fill="#000000" fill-opacity="0.0" d="m596.0 442.0l-68.0 102.01575" fill-rule="evenodd"></path><path stroke="#000000" stroke-width="1.0" stroke-linejoin="round" stroke-linecap="butt" d="m596.0 442.0l-68.0 102.01575" fill-rule="evenodd"></path></g></svg>

